<svg id="visual" viewBox="0 0 900 600" width="900" height="600" xmlns="http://www.w3.org/2000/svg" xmlns:xlink="http://www.w3.org/1999/xlink" version="1.1"><g transform="translate(476.1686809294904 288.07025002160026)"><path d="M127.9 -164.4C174.3 -113.4 226.5 -81.3 226.5 -45.3C226.4 -9.3 174.1 30.5 143 80.8C111.9 131.1 101.9 192 60.3 239C18.6 286 -54.8 319.2 -110 300.1C-165.2 280.9 -202.1 209.5 -234.1 141.3C-266 73.2 -293 8.4 -270.6 -35.3C-248.1 -79 -176.1 -101.5 -122.8 -151.3C-69.4 -201.1 -34.7 -278 3 -281.6C40.7 -285.2 81.4 -215.4 127.9 -164.4" fill="#ec2c6c"></path></g></svg>