<svg id="visual" viewBox="0 0 1073 658" width="1073" height="658" xmlns="http://www.w3.org/2000/svg" xmlns:xlink="http://www.w3.org/1999/xlink" version="1.1"><g transform="translate(502.67744626898866 360.16279877352304)"><path d="M178.7 -249.5C255.7 -228.5 358.9 -219.8 407.5 -169.6C456.2 -119.4 450.3 -27.7 445.8 70.3C441.3 168.3 438.2 272.7 377.5 307.6C316.8 342.5 198.6 308 115.9 279.7C33.3 251.4 -13.8 229.3 -84.6 233.5C-155.4 237.7 -250 268.1 -309.2 243.6C-368.3 219 -392 139.4 -376.4 70.5C-360.8 1.6 -305.9 -56.5 -283.8 -139.8C-261.6 -223.1 -272.2 -331.5 -230.3 -368.6C-188.5 -405.7 -94.3 -371.3 -21.7 -337.5C50.8 -303.7 101.6 -270.5 178.7 -249.5" fill="#F7CACA"></path></g></svg>